HIERARCHY
ROOT Hips
{
	OFFSET 0.000000 0.000000 0.000000
	CHANNELS 6 Xposition Yposition Zposition Yrotation Xrotation Zrotation
	JOINT Chest
	{
		OFFSET 0.000000 -0.009281 11.569106
		CHANNELS 3 Yrotation Xrotation Zrotation
		JOINT Chest2
		{
			OFFSET -0.000000 0.016865 9.269641
			CHANNELS 3 Yrotation Xrotation Zrotation
			JOINT Chest3
			{
				OFFSET -0.000000 0.000001 8.374491
				CHANNELS 3 Yrotation Xrotation Zrotation
				JOINT Chest4
				{
					OFFSET -0.000000 0.000001 8.374493
					CHANNELS 3 Yrotation Xrotation Zrotation
					JOINT Neck
					{
						OFFSET -0.000000 0.000002 12.152554
						CHANNELS 3 Yrotation Xrotation Zrotation
						JOINT Head
						{
							OFFSET -0.000000 0.040101 7.802319
							CHANNELS 3 Yrotation Xrotation Zrotation
							End Site
							{
								OFFSET -0.000000 0.020947 14.853096
							}
						}
					}
					JOINT RightCollar
					{
						OFFSET 2.894404 0.000001 6.791374
						CHANNELS 3 Yrotation Xrotation Zrotation
						JOINT RightShoulder
						{
							OFFSET 13.574684 0.000001 0.000000
							CHANNELS 3 Yrotation Xrotation Zrotation
							JOINT RightElbow
							{
								OFFSET 23.923903 0.000002 0.000000
								CHANNELS 3 Yrotation Xrotation Zrotation
								JOINT RightWrist
								{
									OFFSET 19.846718 0.012767 0.000000
									CHANNELS 3 Yrotation Xrotation Zrotation
									End Site
									{
										OFFSET 14.973145 0.000001 0.000000
									}
								}
							}
						}
					}
					JOINT LeftCollar
					{
						OFFSET -2.894404 0.000001 6.791374
						CHANNELS 3 Yrotation Xrotation Zrotation
						JOINT LeftShoulder
						{
							OFFSET -13.574684 -0.000001 0.000000
							CHANNELS 3 Yrotation Xrotation Zrotation
							JOINT LeftElbow
							{
								OFFSET -23.923903 -0.000002 0.000000
								CHANNELS 3 Yrotation Xrotation Zrotation
								JOINT LeftWrist
								{
									OFFSET -19.846718 0.012763 0.000000
									CHANNELS 3 Yrotation Xrotation Zrotation
									End Site
									{
										OFFSET -14.973145 -0.000001 0.000000
									}
								}
							}
						}
					}
				}
			}
		}
	}
	JOINT RightHip
	{
		OFFSET 9.469263 0.004643 0.045487
		CHANNELS 3 Yrotation Xrotation Zrotation
		JOINT RightKnee
		{
			OFFSET 0.000000 0.002661 -40.478676
			CHANNELS 3 Yrotation Xrotation Zrotation
			JOINT RightAnkle
			{
				OFFSET 0.000000 0.049106 -35.224068
				CHANNELS 3 Yrotation Xrotation Zrotation
				JOINT RightToe
				{
					OFFSET -0.000001 12.539529 -6.151390
					CHANNELS 3 Yrotation Xrotation Zrotation
					End Site
					{
						OFFSET -0.000001 5.044994 -1.291870
					}
				}
			}
		}
	}
	JOINT LeftHip
	{
		OFFSET -9.469263 0.004641 0.045487
		CHANNELS 3 Yrotation Xrotation Zrotation
		JOINT LeftKnee
		{
			OFFSET 0.000000 0.002661 -40.478676
			CHANNELS 3 Yrotation Xrotation Zrotation
			JOINT LeftAnkle
			{
				OFFSET 0.000000 0.049106 -35.224068
				CHANNELS 3 Yrotation Xrotation Zrotation
				JOINT LeftToe
				{
					OFFSET -0.000001 12.539529 -6.151390
					CHANNELS 3 Yrotation Xrotation Zrotation
					End Site
					{
						OFFSET -0.000001 5.044994 -1.291870
					}
				}
			}
		}
	}
}
MOTION
Frames: 14
Frame Time: 0.016667
20.289156 8.664032 83.464409 -2.588962 -6.025625 -129.295440 -3.191496 -0.925860 6.435766 -1.468627 -0.454163 3.029835 -1.468627 -0.454164 3.029837 -1.099245 -0.347916 2.271288 7.171894 -13.644164 -24.936944 4.090995 9.448643 -44.124555 -1.035342 11.889007 -19.883205 36.144354 31.409827 58.048992 29.459658 53.611804 39.001524 -47.290174 30.427752 -13.145962 -2.641170 -15.549527 -27.378941 -42.158547 0.681278 -40.996284 -45.668277 -26.844501 -43.623944 19.215291 26.357505 6.684678 1.949423 -6.281873 3.306006 -0.611203 -3.062025 0.599371 3.981074 2.957553 6.652795 -0.150657 -0.304513 -0.017904 2.594845 -10.717444 1.901663 -0.062330 0.135668 -1.303698 1.194951 4.566304 4.461409 -0.067272 0.231919 0.016858 
20.328169 8.610572 83.454269 -2.644053 -6.034361 -129.399355 -3.132698 -0.927220 6.415364 -1.444692 -0.453082 3.021892 -1.444692 -0.453082 3.021892 -1.081305 -0.346967 2.265350 7.042643 -13.700530 -24.864423 3.895595 9.322253 -44.028147 -1.128613 11.883036 -19.909945 36.697674 31.342580 58.869571 32.446537 52.992460 42.034582 -46.697570 30.760860 -13.692611 -2.638734 -15.528106 -27.353968 -42.055090 0.748335 -41.040380 -45.653804 -26.826352 -43.417713 18.838526 26.259516 6.609974 1.930902 -6.404691 3.334938 -0.633346 -2.998477 0.640630 4.009581 2.975638 6.655129 -0.148308 -0.306552 -0.022547 2.553132 -10.849578 2.058777 -0.056206 0.186113 -1.318130 1.181422 4.588848 4.483524 -0.055409 0.243012 0.022960 
20.369852 8.558407 83.442139 -2.694124 -6.025335 -129.465799 -3.078427 -0.935861 6.383820 -1.422923 -0.455346 3.008769 -1.422922 -0.455346 3.008772 -1.064974 -0.348528 2.255519 6.913724 -13.757163 -24.789721 3.701580 9.195919 -43.927378 -1.188112 11.831101 -19.884441 37.432613 31.484556 59.802240 34.115945 52.059777 43.814359 -46.037381 31.222656 -14.038492 -2.629778 -15.468862 -27.317866 -41.917530 0.839465 -41.126263 -45.588945 -26.864191 -43.190711 18.362598 26.188742 6.552756 1.896606 -6.519247 3.313997 -0.664127 -2.934175 0.685011 4.042449 3.004485 6.722857 -0.136164 -0.311608 -0.024124 2.514953 -10.956720 2.167221 -0.052271 0.230922 -1.330997 1.157289 4.611007 4.425471 -0.040176 0.251365 0.025891 
20.417166 8.513090 83.429161 -2.736608 -5.992405 -129.488830 -3.035806 -0.939312 6.341148 -1.405408 -0.455387 2.991709 -1.405408 -0.455387 2.991710 -1.051850 -0.348433 2.242737 6.788069 -13.813185 -24.718229 3.512315 9.071060 -43.831346 -1.233681 11.826082 -19.790302 38.020169 31.618602 60.593538 35.177178 51.263104 45.049807 -45.418395 31.717244 -14.415061 -2.649261 -15.355300 -27.275245 -41.676045 0.881030 -41.183787 -45.471134 -26.923347 -43.048080 17.828151 26.104582 6.582949 1.861973 -6.615948 3.215888 -0.707241 -2.871030 0.754488 4.064979 3.045286 6.783071 -0.116132 -0.320831 -0.030035 2.451921 -11.027147 2.192633 -0.037024 0.256565 -1.318717 1.135208 4.635266 4.426662 -0.021646 0.261547 0.030198 
20.468395 8.477112 83.415314 -2.771422 -5.930170 -129.464733 -3.011106 -0.928781 6.290512 -1.396533 -0.449864 2.970877 -1.396533 -0.449864 2.970879 -1.045236 -0.344199 2.227135 6.672957 -13.870622 -24.653429 3.340540 8.945579 -43.743486 -1.304005 11.862953 -19.726391 38.398036 31.672410 61.197505 36.310433 50.771426 46.315899 -44.963029 32.018974 -14.846130 -2.618900 -15.273589 -27.244552 -41.371313 0.951229 -41.293678 -45.384107 -26.943452 -42.957539 17.332271 26.020517 6.644217 1.802122 -6.693224 3.103237 -0.741232 -2.804310 0.815687 4.076363 3.097537 6.795890 -0.088014 -0.333247 -0.034550 2.387577 -11.056796 2.140443 -0.030914 0.274280 -1.298440 1.113904 4.650657 4.396797 -0.003959 0.271860 0.032076 
20.516472 8.446814 83.401375 -2.804876 -5.855257 -129.397647 -2.999081 -0.915625 6.245342 -1.394621 -0.444097 2.950976 -1.394622 -0.444097 2.950973 -1.043845 -0.339819 2.212219 6.568931 -13.923910 -24.597256 3.184980 8.829237 -43.668193 -1.358166 11.943428 -19.666353 38.709479 31.825161 61.662784 36.969656 50.268761 47.028940 -44.327330 32.041773 -15.200912 -2.549142 -15.215349 -27.244293 -41.038772 1.063850 -41.460041 -45.358016 -26.907266 -42.835490 16.907058 25.957241 6.700361 1.733503 -6.757586 3.014859 -0.757950 -2.745252 0.832341 4.065020 3.155485 6.789108 -0.056053 -0.343436 -0.040143 2.307007 -11.066631 2.037189 -0.015311 0.289725 -1.261666 1.090415 4.657599 4.412115 0.016618 0.282080 0.037150 
20.567499 8.426039 83.388840 -2.842666 -5.773734 -129.302461 -2.989999 -0.899467 6.198772 -1.391768 -0.437432 2.929266 -1.391769 -0.437432 2.929259 -1.041754 -0.334756 2.195947 6.452544 -13.983841 -24.530030 3.012409 8.699380 -43.575637 -1.404603 12.067990 -19.557156 38.918889 32.113094 62.034524 36.810485 49.673056 46.836834 -43.634332 31.943866 -15.548026 -2.518670 -15.100734 -27.224895 -40.720123 1.152019 -41.625287 -45.295970 -26.831153 -42.723359 16.397580 25.886873 6.795120 1.647090 -6.820466 2.959327 -0.766569 -2.689370 0.803936 4.054439 3.213742 6.799088 -0.026073 -0.348854 -0.043755 2.218899 -11.065915 1.915249 0.013692 0.305917 -1.219613 1.055398 4.650313 4.395320 0.034533 0.294943 0.037909 
20.620638 8.409614 83.377640 -2.885595 -5.685580 -129.185365 -2.987838 -0.883387 6.151450 -1.392887 -0.430782 2.906574 -1.392889 -0.430780 2.906574 -1.042639 -0.329721 2.178952 6.331801 -14.046169 -24.452817 2.835755 8.565838 -43.465558 -1.494816 12.218092 -19.458060 38.888297 32.328037 62.210326 36.308848 49.146206 46.295770 -43.202354 31.898735 -15.795979 -2.465100 -14.988171 -27.214460 -40.439259 1.286024 -41.809681 -45.183423 -26.776404 -42.611945 15.794071 25.749342 6.772487 1.552344 -6.886904 2.921424 -0.764066 -2.626303 0.747217 4.040451 3.268786 6.759104 -0.005904 -0.352351 -0.049089 2.118982 -11.076160 1.846328 0.045086 0.353567 -1.229383 1.012875 4.617324 4.334121 0.056597 0.311969 0.041911 
20.673950 8.393166 83.367432 -2.932135 -5.595183 -129.043228 -3.000751 -0.860064 6.107221 -1.401213 -0.420900 2.884006 -1.401212 -0.420900 2.884006 -1.048945 -0.322299 2.162042 6.224119 -14.114311 -24.375837 2.684465 8.425786 -43.349875 -1.612967 12.360756 -19.412280 38.502237 32.423075 62.004355 36.401739 48.799185 46.297543 -43.190127 31.968198 -15.974866 -2.401256 -14.917738 -27.216745 -40.134451 1.450472 -42.017678 -45.023190 -26.783308 -42.610070 15.322793 25.633989 6.768341 1.439517 -6.958479 2.879728 -0.741635 -2.561606 0.666237 4.026338 3.319851 6.771261 0.007798 -0.350178 -0.052983 2.023145 -11.091455 1.826283 0.073307 0.418386 -1.286067 0.959723 4.566503 4.257649 0.080218 0.331133 0.046014 
20.725298 8.372317 83.357330 -2.976319 -5.499291 -128.864619 -3.017217 -0.821186 6.053080 -1.411014 -0.403522 2.856963 -1.411015 -0.403522 2.856967 -1.056398 -0.309248 2.141801 6.120603 -14.197954 -24.303256 2.543941 8.258336 -43.237911 -1.725750 12.438720 -19.386672 38.074241 32.515799 61.676321 36.854389 48.441320 46.725430 -43.455986 31.933525 -16.062848 -2.328439 -14.915492 -27.227137 -39.837297 1.671359 -42.244542 -44.897074 -26.798951 -42.673069 14.843499 25.493181 6.753911 1.341236 -7.035602 2.815027 -0.729364 -2.483986 0.556856 4.013617 3.366415 6.793964 0.016016 -0.346935 -0.056191 1.935908 -11.097125 1.811421 0.091297 0.480515 -1.356361 0.903660 4.513660 4.200554 0.104284 0.348357 0.050742 
20.775440 8.347182 83.345261 -3.014575 -5.399857 -128.652979 -3.037945 -0.768060 5.995650 -1.420816 -0.378791 2.828966 -1.420817 -0.378791 2.828969 -1.063882 -0.290679 2.120854 6.015328 -14.302411 -24.237206 2.404353 8.051712 -43.134943 -1.789521 12.286984 -19.399867 37.983870 32.832484 61.671083 36.256154 47.725298 46.280703 -43.545140 31.564838 -15.898356 -2.213862 -14.985266 -27.276347 -39.584843 1.978479 -42.520212 -44.805635 -26.826480 -42.750359 14.285050 25.286093 6.779849 1.254917 -7.121900 2.718656 -0.727952 -2.385444 0.445073 4.011440 3.413227 6.786788 0.017224 -0.348426 -0.059541 1.862956 -11.087508 1.762299 0.100154 0.530514 -1.414688 0.847311 4.471847 4.170845 0.125556 0.355774 0.053982 
20.824785 8.326442 83.331268 -3.047351 -5.298605 -128.415917 -3.055191 -0.703407 5.923728 -1.427693 -0.348930 2.794360 -1.427694 -0.348929 2.794355 -1.069198 -0.268233 2.094959 5.894948 -14.427082 -24.160536 2.246582 7.806277 -43.014066 -1.854849 12.162502 -19.370423 37.900952 33.134631 61.786854 34.854076 47.056243 45.067005 -43.591753 31.113988 -15.828292 -2.094466 -15.070826 -27.317927 -39.345766 2.309653 -42.825730 -44.683606 -26.838900 -42.856350 13.582917 25.036420 6.825833 1.158853 -7.203993 2.602889 -0.698958 -2.283645 0.363234 4.000207 3.463151 6.744236 0.013667 -0.352786 -0.064440 1.800615 -11.058194 1.668039 0.111147 0.563524 -1.447213 0.788335 4.442198 4.051112 0.141181 0.351881 0.055851 
20.868000 8.309719 83.317863 -3.087215 -5.208236 -128.167776 -3.074354 -0.659405 5.850255 -1.435141 -0.328781 2.758561 -1.435143 -0.328781 2.758558 -1.074896 -0.253071 2.068155 5.778966 -14.549594 -24.076572 2.098291 7.567475 -42.878425 -1.943742 12.345324 -19.233041 37.409322 33.214066 61.535196 33.977005 46.943665 44.209923 -43.666779 30.826840 -16.015001 -1.997515 -15.066947 -27.360599 -39.077309 2.595693 -43.113834 -44.574959 -26.855436 -42.922568 12.835058 24.816649 6.842796 1.066798 -7.286974 2.469992 -0.663858 -2.197200 0.307336 3.990359 3.514909 6.660159 0.004601 -0.354947 -0.070705 1.734893 -11.028816 1.563184 0.124854 0.579037 -1.483913 0.733772 4.416752 3.992022 0.156182 0.346245 0.059844 
20.904711 8.291645 83.307487 -3.147998 -5.129686 -127.913775 -3.112119 -0.654362 5.774540 -1.451660 -0.326368 2.721364 -1.451660 -0.326367 2.721367 -1.087315 -0.251247 2.040256 5.697907 -14.653633 -23.997434 2.006222 7.371477 -42.742272 -2.051578 12.651357 -19.106180 36.810594 33.207195 61.106144 34.060398 47.239067 44.149858 -43.689346 30.515482 -16.354902 -1.910691 -14.948301 -27.374485 -38.759882 2.833904 -43.379081 -44.529835 -26.914588 -42.985208 12.234067 24.662189 6.836297 0.970690 -7.386389 2.331013 -0.635213 -2.122460 0.223179 3.991603 3.557144 6.701114 -0.004497 -0.349468 -0.071824 1.679978 -11.018733 1.472023 0.134753 0.597445 -1.542046 0.665610 4.372689 3.909542 0.170962 0.348541 0.062036 
